FFmpeg version SVN-r25716, Copyright (c) 2000-2010 the FFmpeg developers  built on Nov 10 2010 12:23:18 with gcc 4.1.2 20080704 (Red Hat 4.1.2-48)  configuration: --enable-libmp3lame --enable-shared --disable-mmx --arch=x86_64  libavutil     50.33. 0 / 50.33. 0  libavcore      0.12. 1 /  0.12. 1  libavcodec    52.94. 4 / 52.94. 4  libavformat   52.84. 0 / 52.84. 0  libavdevice   52. 2. 2 / 52. 2. 2  libavfilter    1.59. 0 /  1.59. 0  libswscale     0.12. 0 /  0.12. 0Input #0, avi, from '/RAID10/data/converted_video_files/11959.avi':  Duration: 00:00:11.31, start: 0.000000, bitrate: 6052 kb/s    Stream #0.0: Video: mpeg4, yuv420p, 704x480 [PAR 1:1 DAR 22:15], 25 tbr, 29.97 tbn, 25 tbc[buffer @ 0x9921a40] w:704 h:480 pixfmt:yuv420pOutput #0, flv, to '/RAID10/data/converted_video_files/11959.flv':  Metadata:    encoder         : Lavf52.84.0    Stream #0.0: Video: flv, yuv420p, 704x480 [PAR 1:1 DAR 22:15], q=2-31, 600 kb/s, 1k tbn, 24 tbcStream mapping:  Stream #0.0 -> #0.0Press [q] to stop encodingframe=   37 fps=  0 q=9.5 size=     259kB time=1.58 bitrate=1338.9kbits/s dup=0 drop=9    frame=   73 fps= 70 q=11.5 size=     381kB time=3.08 bitrate=1010.7kbits/s dup=0 drop=18    frame=  114 fps= 74 q=18.1 size=     509kB time=4.79 bitrate= 869.4kbits/s dup=0 drop=28    frame=  157 fps= 76 q=8.3 size=     639kB time=6.58 bitrate= 795.3kbits/s dup=0 drop=39    frame=  200 fps= 79 q=9.3 size=     749kB time=8.37 bitrate= 732.6kbits/s dup=0 drop=50    frame=  244 fps= 80 q=10.9 size=     882kB time=10.21 bitrate= 707.8kbits/s dup=0 drop=60    frame=  272 fps= 80 q=8.6 Lsize=     962kB time=11.37 bitrate= 692.9kbits/s dup=0 drop=67    video:958kB audio:0kB global headers:0kB muxing overhead 0.465261%